<svg xmlns="http://www.w3.org/2000/svg" xmlns:xlink="http://www.w3.org/1999/xlink" width="500" zoomAndPan="magnify" viewBox="0 0 375 374.999991" height="500" preserveAspectRatio="xMidYMid meet" version="1.2"><defs><clipPath id="fdcbc64db7"><path d="M 0 33.515625 L 375 33.515625 L 375 341.765625 L 0 341.765625 Z M 0 33.515625 "/></clipPath></defs><g id="0209398192"><g clip-rule="nonzero" clip-path="url(#fdcbc64db7)"><path style=" stroke:none;fill-rule:nonzero;fill:#000000;fill-opacity:1;" d="M 321.441406 73.714844 L 266.429688 73.714844 L 250.160156 53.480469 C 239.9375 40.796875 224.738281 33.515625 208.445312 33.515625 L 166.554688 33.515625 C 150.285156 33.515625 135.0625 40.796875 124.867188 53.480469 L 108.597656 73.714844 L 53.558594 73.714844 C 24.066406 73.714844 0.0507812 97.757812 0.0507812 127.277344 L 0.0507812 288.207031 C 0.0507812 317.75 24.066406 341.765625 53.558594 341.765625 L 321.441406 341.765625 C 350.957031 341.765625 374.949219 317.726562 374.949219 288.207031 L 374.949219 127.277344 C 374.949219 97.757812 350.933594 73.714844 321.441406 73.714844 Z M 348.183594 288.207031 C 348.183594 302.964844 336.1875 314.972656 321.441406 314.972656 L 53.558594 314.972656 C 38.8125 314.972656 26.816406 302.964844 26.816406 288.207031 L 26.816406 127.277344 C 26.816406 112.515625 38.8125 100.507812 53.558594 100.507812 L 114.96875 100.507812 C 119.019531 100.507812 122.84375 98.65625 125.390625 95.503906 L 145.710938 70.316406 C 150.808594 63.960938 158.40625 60.332031 166.554688 60.332031 L 208.46875 60.332031 C 216.617188 60.332031 224.214844 63.960938 229.3125 70.316406 L 249.609375 95.53125 C 252.15625 98.683594 255.980469 100.535156 260.03125 100.535156 L 321.441406 100.535156 C 336.1875 100.535156 348.183594 112.542969 348.183594 127.300781 Z M 187.5 113.941406 C 135.8125 113.941406 93.773438 156.019531 93.773438 207.753906 C 93.773438 259.488281 135.8125 301.566406 187.5 301.566406 C 239.1875 301.566406 281.226562 259.488281 281.226562 207.753906 C 281.226562 156.019531 239.1875 113.941406 187.5 113.941406 Z M 187.5 274.746094 C 150.585938 274.746094 120.542969 244.675781 120.542969 207.730469 C 120.542969 170.78125 150.585938 140.734375 187.5 140.734375 C 224.414062 140.734375 254.457031 170.804688 254.457031 207.753906 C 254.457031 244.703125 224.414062 274.746094 187.5 274.746094 Z M 187.5 274.746094 "/></g></g></svg>