<svg xmlns="http://www.w3.org/2000/svg" xmlns:xlink="http://www.w3.org/1999/xlink" width="500" zoomAndPan="magnify" viewBox="0 0 375 374.999991" height="500" preserveAspectRatio="xMidYMid meet" version="1.2"><defs><clipPath id="80905429ac"><path d="M 1 26 L 374 26 L 374 349.546875 L 1 349.546875 Z M 1 26 "/></clipPath></defs><g id="51a9bbe4ef"><g clip-rule="nonzero" clip-path="url(#80905429ac)"><path style=" stroke:none;fill-rule:nonzero;fill:#3c3c3b;fill-opacity:1;" d="M 195.027344 29.097656 C 194.484375 28.660156 193.90625 28.273438 193.292969 27.933594 C 192.683594 27.59375 192.050781 27.304688 191.390625 27.074219 C 190.730469 26.84375 190.058594 26.667969 189.371094 26.550781 C 188.679688 26.433594 187.988281 26.375 187.289062 26.375 C 186.589844 26.375 185.894531 26.433594 185.207031 26.550781 C 184.519531 26.667969 183.84375 26.84375 183.1875 27.074219 C 182.527344 27.304688 181.894531 27.59375 181.28125 27.933594 C 180.671875 28.273438 180.09375 28.660156 179.550781 29.097656 L 1.019531 168.386719 L 16.414062 188.007812 L 38.316406 171.09375 L 38.316406 324.675781 C 38.3125 325.488281 38.351562 326.300781 38.429688 327.113281 C 38.507812 327.925781 38.625 328.730469 38.78125 329.53125 C 38.9375 330.332031 39.132812 331.121094 39.367188 331.902344 C 39.605469 332.679688 39.875 333.449219 40.1875 334.203125 C 40.496094 334.957031 40.84375 335.691406 41.226562 336.410156 C 41.609375 337.128906 42.027344 337.828125 42.480469 338.507812 C 42.933594 339.1875 43.417969 339.839844 43.933594 340.46875 C 44.453125 341.101562 45 341.703125 45.574219 342.28125 C 46.152344 342.855469 46.753906 343.402344 47.382812 343.917969 C 48.015625 344.4375 48.667969 344.921875 49.347656 345.375 C 50.023438 345.824219 50.722656 346.242188 51.445312 346.625 C 52.164062 347.011719 52.898438 347.355469 53.652344 347.667969 C 54.40625 347.976562 55.171875 348.25 55.953125 348.484375 C 56.734375 348.722656 57.523438 348.917969 58.324219 349.074219 C 59.125 349.230469 59.929688 349.347656 60.742188 349.425781 C 61.550781 349.503906 62.367188 349.539062 63.179688 349.539062 L 311.648438 349.539062 C 312.464844 349.539062 313.277344 349.496094 314.085938 349.417969 C 314.898438 349.339844 315.703125 349.21875 316.5 349.058594 C 317.300781 348.902344 318.089844 348.703125 318.867188 348.46875 C 319.648438 348.230469 320.414062 347.957031 321.164062 347.644531 C 321.917969 347.332031 322.652344 346.984375 323.371094 346.601562 C 324.089844 346.21875 324.785156 345.800781 325.464844 345.347656 C 326.140625 344.894531 326.792969 344.410156 327.421875 343.894531 C 328.054688 343.378906 328.65625 342.832031 329.230469 342.253906 C 329.808594 341.679688 330.351562 341.078125 330.871094 340.449219 C 331.386719 339.816406 331.871094 339.164062 332.324219 338.488281 C 332.777344 337.808594 333.195312 337.113281 333.578125 336.394531 C 333.960938 335.675781 334.308594 334.941406 334.621094 334.1875 C 334.933594 333.4375 335.207031 332.671875 335.441406 331.890625 C 335.679688 331.113281 335.878906 330.324219 336.035156 329.523438 C 336.195312 328.726562 336.3125 327.921875 336.394531 327.109375 C 336.472656 326.300781 336.515625 325.488281 336.515625 324.675781 L 336.515625 171.007812 L 358.417969 187.921875 L 373.808594 168.472656 Z M 211.941406 325.097656 L 162.550781 325.097656 L 162.550781 225.304688 L 212.449219 225.304688 Z M 236.804688 325.097656 L 236.804688 225.304688 C 236.804688 224.5 236.765625 223.699219 236.6875 222.898438 C 236.609375 222.097656 236.496094 221.304688 236.339844 220.515625 C 236.183594 219.726562 235.992188 218.945312 235.761719 218.175781 C 235.53125 217.40625 235.265625 216.648438 234.960938 215.902344 C 234.65625 215.160156 234.320312 214.433594 233.945312 213.71875 C 233.570312 213.007812 233.164062 212.316406 232.722656 211.644531 C 232.28125 210.972656 231.808594 210.324219 231.304688 209.699219 C 230.796875 209.074219 230.265625 208.472656 229.703125 207.898438 C 229.140625 207.324219 228.550781 206.777344 227.9375 206.261719 C 227.320312 205.746094 226.679688 205.257812 226.019531 204.804688 C 225.355469 204.347656 224.671875 203.925781 223.96875 203.539062 C 223.265625 203.148438 222.546875 202.792969 221.808594 202.476562 C 221.070312 202.15625 220.316406 201.875 219.554688 201.628906 C 218.789062 201.382812 218.011719 201.171875 217.226562 201.003906 C 216.441406 200.832031 215.648438 200.699219 214.851562 200.605469 C 214.054688 200.511719 213.253906 200.457031 212.449219 200.4375 L 162.550781 200.4375 C 161.738281 200.4375 160.925781 200.480469 160.113281 200.558594 C 159.304688 200.640625 158.5 200.757812 157.699219 200.917969 C 156.902344 201.074219 156.113281 201.273438 155.335938 201.511719 C 154.554688 201.746094 153.789062 202.019531 153.035156 202.332031 C 152.285156 202.644531 151.550781 202.992188 150.832031 203.375 C 150.113281 203.757812 149.414062 204.175781 148.738281 204.628906 C 148.0625 205.082031 147.40625 205.566406 146.777344 206.082031 C 146.148438 206.601562 145.546875 207.144531 144.96875 207.722656 C 144.394531 208.296875 143.847656 208.898438 143.332031 209.53125 C 142.816406 210.160156 142.332031 210.8125 141.878906 211.488281 C 141.425781 212.167969 141.007812 212.863281 140.625 213.582031 C 140.238281 214.300781 139.890625 215.035156 139.582031 215.789062 C 139.269531 216.539062 138.996094 217.304688 138.757812 218.085938 C 138.523438 218.863281 138.324219 219.652344 138.164062 220.453125 C 138.007812 221.25 137.886719 222.054688 137.808594 222.867188 C 137.726562 223.675781 137.6875 224.488281 137.6875 225.304688 L 137.6875 324.675781 L 63.179688 324.675781 L 63.179688 151.472656 L 187.078125 54.640625 L 311.648438 151.558594 L 311.648438 324.675781 Z M 236.804688 325.097656 "/></g></g></svg>