<svg xmlns="http://www.w3.org/2000/svg" xmlns:xlink="http://www.w3.org/1999/xlink" width="1024" zoomAndPan="magnify" viewBox="0 0 768 767.999994" height="1024" preserveAspectRatio="xMidYMid meet" version="1.0"><defs><g/><clipPath id="e1726b8bc7"><path d="M 53.511719 53.511719 L 714.261719 53.511719 L 714.261719 714.261719 L 53.511719 714.261719 Z M 53.511719 53.511719 " clip-rule="nonzero"/></clipPath><clipPath id="fdb96436e0"><path d="M 383.996094 53.511719 C 201.476562 53.511719 53.511719 201.476562 53.511719 383.996094 C 53.511719 566.519531 201.476562 714.484375 383.996094 714.484375 C 566.519531 714.484375 714.484375 566.519531 714.484375 383.996094 C 714.484375 201.476562 566.519531 53.511719 383.996094 53.511719 Z M 383.996094 53.511719 " clip-rule="nonzero"/></clipPath></defs><g fill="#000000" fill-opacity="1"><g transform="translate(219.167891, 536.115093)"><g><path d="M 315.734375 0 L 271.59375 0 L 239.203125 -96.203125 L 89.734375 -96.203125 L 57.09375 0 L 13.921875 0 L 136.28125 -350.765625 L 193.375 -350.765625 Z M 161.46875 -308.296875 L 101.25 -130.75 L 227.453125 -130.75 L 167.46875 -308.296875 Z M 161.46875 -308.296875 "/></g></g></g><g clip-path="url(#e1726b8bc7)"><g clip-path="url(#fdb96436e0)"><path stroke-linecap="butt" transform="matrix(0.75, 0, 0, 0.75, 53.510883, 53.5109)" fill="none" stroke-linejoin="miter" d="M 440.64697 0.001092 C 197.287583 0.001092 0.00111466 197.28756 0.00111466 440.646947 C 0.00111466 684.011543 197.287583 881.298011 440.64697 881.298011 C 684.011565 881.298011 881.298033 684.011543 881.298033 440.646947 C 881.298033 197.28756 684.011565 0.001092 440.64697 0.001092 Z M 440.64697 0.001092 " stroke="#000000" stroke-width="30" stroke-opacity="1" stroke-miterlimit="4"/></g></g></svg>