<svg xmlns="http://www.w3.org/2000/svg" xmlns:xlink="http://www.w3.org/1999/xlink" width="1024" zoomAndPan="magnify" viewBox="0 0 768 767.999994" height="1024" preserveAspectRatio="xMidYMid meet" version="1.0"><defs><g/><clipPath id="25ae84e24b"><path d="M 53.511719 53.511719 L 714.261719 53.511719 L 714.261719 714.261719 L 53.511719 714.261719 Z M 53.511719 53.511719 " clip-rule="nonzero"/></clipPath><clipPath id="44b3faf3a3"><path d="M 383.996094 53.511719 C 201.476562 53.511719 53.511719 201.472656 53.511719 383.996094 C 53.511719 566.519531 201.476562 714.484375 383.996094 714.484375 C 566.519531 714.484375 714.484375 566.519531 714.484375 383.996094 C 714.484375 201.472656 566.519531 53.511719 383.996094 53.511719 Z M 383.996094 53.511719 " clip-rule="nonzero"/></clipPath></defs><g clip-path="url(#25ae84e24b)"><g clip-path="url(#44b3faf3a3)"><path stroke-linecap="butt" transform="matrix(0.75, 0, 0, 0.75, 53.510883, 53.510643)" fill="none" stroke-linejoin="miter" d="M 440.64697 0.0014344 C 197.287583 0.0014344 0.00111466 197.282694 0.00111466 440.64729 C 0.00111466 684.011885 197.287583 881.298353 440.64697 881.298353 C 684.011565 881.298353 881.298033 684.011885 881.298033 440.64729 C 881.298033 197.282694 684.011565 0.0014344 440.64697 0.0014344 Z M 440.64697 0.0014344 " stroke="#000000" stroke-width="30" stroke-opacity="1" stroke-miterlimit="4"/></g></g><g fill="#000000" fill-opacity="1"><g transform="translate(219.167891, 560.192042)"><g><path d="M 53.015625 0 L 53.015625 -350.765625 L 185.9375 -350.765625 C 207.53125 -350.765625 225.84375 -347.320312 240.875 -340.4375 C 255.914062 -333.5625 267.234375 -323.765625 274.828125 -311.046875 C 282.421875 -298.335938 286.21875 -283.1875 286.21875 -265.59375 C 286.21875 -250.394531 282.097656 -236.640625 273.859375 -224.328125 C 265.628906 -212.015625 253.835938 -202.414062 238.484375 -195.53125 L 238.484375 -190.5 C 261.835938 -184.738281 279.550781 -174.257812 291.625 -159.0625 C 303.695312 -143.875 309.734375 -124.765625 309.734375 -101.734375 C 309.734375 -69.097656 300.175781 -43.984375 281.0625 -26.390625 C 261.945312 -8.796875 233.597656 0 196.015625 0 Z M 184.015625 -203.453125 C 203.367188 -203.453125 218.40625 -208.53125 229.125 -218.6875 C 239.84375 -228.84375 245.203125 -242.800781 245.203125 -260.5625 C 245.203125 -279.269531 240.039062 -293.300781 229.71875 -302.65625 C 219.40625 -312.019531 204.171875 -316.703125 184.015625 -316.703125 L 94.296875 -316.703125 L 94.296875 -203.453125 Z M 192.890625 -34.0625 C 242.796875 -34.0625 267.75 -56.617188 267.75 -101.734375 C 267.75 -146.835938 242.796875 -169.390625 192.890625 -169.390625 L 94.296875 -169.390625 L 94.296875 -34.0625 Z M 192.890625 -34.0625 "/></g></g></g></svg>