<svg xmlns="http://www.w3.org/2000/svg" xmlns:xlink="http://www.w3.org/1999/xlink" width="1024" zoomAndPan="magnify" viewBox="0 0 768 767.999994" height="1024" preserveAspectRatio="xMidYMid meet" version="1.0"><defs><g/><clipPath id="0c75eddd9a"><path d="M 53.511719 53.511719 L 714.261719 53.511719 L 714.261719 714.261719 L 53.511719 714.261719 Z M 53.511719 53.511719 " clip-rule="nonzero"/></clipPath><clipPath id="037834ba1b"><path d="M 383.996094 53.511719 C 201.476562 53.511719 53.511719 201.476562 53.511719 383.996094 C 53.511719 566.519531 201.476562 714.484375 383.996094 714.484375 C 566.519531 714.484375 714.484375 566.519531 714.484375 383.996094 C 714.484375 201.476562 566.519531 53.511719 383.996094 53.511719 Z M 383.996094 53.511719 " clip-rule="nonzero"/></clipPath></defs><g clip-path="url(#0c75eddd9a)"><g clip-path="url(#037834ba1b)"><path stroke-linecap="butt" transform="matrix(0.75, 0, 0, 0.75, 53.510883, 53.510993)" fill="none" stroke-linejoin="miter" d="M 440.64697 0.000967197 C 197.287583 0.000967197 0.00111466 197.287435 0.00111466 440.646822 C 0.00111466 684.011418 197.287583 881.297886 440.64697 881.297886 C 684.011565 881.297886 881.298033 684.011418 881.298033 440.646822 C 881.298033 197.287435 684.011565 0.000967197 440.64697 0.000967197 Z M 440.64697 0.000967197 " stroke="#000000" stroke-width="30" stroke-opacity="1" stroke-miterlimit="4"/></g></g><g fill="#000000" fill-opacity="1"><g transform="translate(200.079749, 560.192276)"><g><path d="M 193.859375 5.03125 C 163.148438 5.03125 135.796875 -2.003906 111.796875 -16.078125 C 87.804688 -30.148438 69.015625 -50.738281 55.421875 -77.84375 C 41.828125 -104.957031 35.03125 -137.46875 35.03125 -175.375 C 35.03125 -213.289062 41.828125 -245.800781 55.421875 -272.90625 C 69.015625 -300.019531 87.804688 -320.613281 111.796875 -334.6875 C 135.796875 -348.757812 163.148438 -355.796875 193.859375 -355.796875 C 226.648438 -355.796875 253.921875 -349.597656 275.671875 -337.203125 C 297.421875 -324.804688 313.09375 -306.132812 322.6875 -281.1875 L 296.296875 -263.671875 L 290.3125 -263.671875 C 280.707031 -283.660156 268.226562 -297.851562 252.875 -306.25 C 237.519531 -314.65625 217.847656 -318.859375 193.859375 -318.859375 C 171.785156 -318.859375 152.191406 -313.9375 135.078125 -304.09375 C 117.960938 -294.257812 104.363281 -278.664062 94.28125 -257.3125 C 84.207031 -235.957031 79.171875 -208.644531 79.171875 -175.375 C 79.171875 -142.113281 84.207031 -114.84375 94.28125 -93.5625 C 104.363281 -72.289062 117.960938 -56.738281 135.078125 -46.90625 C 152.191406 -37.070312 171.785156 -32.15625 193.859375 -32.15625 C 219.285156 -32.15625 240.078125 -37.867188 256.234375 -49.296875 C 272.390625 -60.734375 284.382812 -79.25 292.21875 -104.84375 L 298.21875 -104.84375 L 325.8125 -91.171875 C 317.5 -60.140625 302.101562 -36.347656 279.625 -19.796875 C 257.15625 -3.242188 228.566406 5.03125 193.859375 5.03125 Z M 193.859375 5.03125 "/></g></g></g></svg>