<svg xmlns="http://www.w3.org/2000/svg" xmlns:xlink="http://www.w3.org/1999/xlink" width="1024" zoomAndPan="magnify" viewBox="0 0 768 767.999994" height="1024" preserveAspectRatio="xMidYMid meet" version="1.0"><defs><g/><clipPath id="3c4ddb17d2"><path d="M 53.511719 53.511719 L 714.261719 53.511719 L 714.261719 714.261719 L 53.511719 714.261719 Z M 53.511719 53.511719 " clip-rule="nonzero"/></clipPath><clipPath id="db16e114a9"><path d="M 383.996094 53.511719 C 201.476562 53.511719 53.511719 201.472656 53.511719 383.996094 C 53.511719 566.519531 201.476562 714.484375 383.996094 714.484375 C 566.519531 714.484375 714.484375 566.519531 714.484375 383.996094 C 714.484375 201.472656 566.519531 53.511719 383.996094 53.511719 Z M 383.996094 53.511719 " clip-rule="nonzero"/></clipPath></defs><g clip-path="url(#3c4ddb17d2)"><g clip-path="url(#db16e114a9)"><path stroke-linecap="butt" transform="matrix(0.75, 0, 0, 0.75, 53.510883, 53.510643)" fill="none" stroke-linejoin="miter" d="M 440.64697 0.0014344 C 197.287583 0.0014344 0.00111466 197.282694 0.00111466 440.64729 C 0.00111466 684.011885 197.287583 881.298353 440.64697 881.298353 C 684.011565 881.298353 881.298033 684.011885 881.298033 440.64729 C 881.298033 197.282694 684.011565 0.0014344 440.64697 0.0014344 Z M 440.64697 0.0014344 " stroke="#000000" stroke-width="30" stroke-opacity="1" stroke-miterlimit="4"/></g></g><g fill="#000000" fill-opacity="1"><g transform="translate(214.667892, 563.192041)"><g><path d="M 166.5 -350.765625 C 202.007812 -350.765625 232.519531 -344.40625 258.03125 -331.6875 C 283.539062 -318.976562 303.210938 -299.585938 317.046875 -273.515625 C 330.890625 -247.441406 337.8125 -214.726562 337.8125 -175.375 C 337.8125 -136.03125 330.890625 -103.320312 317.046875 -77.25 C 303.210938 -51.175781 283.539062 -31.78125 258.03125 -19.0625 C 232.519531 -6.351562 202.007812 0 166.5 0 L 53.015625 0 L 53.015625 -350.765625 Z M 162.421875 -35.03125 C 191.691406 -35.03125 215.921875 -39.585938 235.109375 -48.703125 C 254.304688 -57.816406 268.863281 -72.691406 278.78125 -93.328125 C 288.695312 -113.960938 293.65625 -141.3125 293.65625 -175.375 C 293.65625 -209.601562 288.695312 -236.992188 278.78125 -257.546875 C 268.863281 -278.109375 254.304688 -292.945312 235.109375 -302.0625 C 215.921875 -311.175781 191.691406 -315.734375 162.421875 -315.734375 L 94.296875 -315.734375 L 94.296875 -35.03125 Z M 162.421875 -35.03125 "/></g></g></g></svg>