<svg xmlns="http://www.w3.org/2000/svg" xmlns:xlink="http://www.w3.org/1999/xlink" width="1024" zoomAndPan="magnify" viewBox="0 0 768 767.999994" height="1024" preserveAspectRatio="xMidYMid meet" version="1.0"><defs><g/><clipPath id="69fa484ae0"><path d="M 53.511719 53.511719 L 714.261719 53.511719 L 714.261719 714.261719 L 53.511719 714.261719 Z M 53.511719 53.511719 " clip-rule="nonzero"/></clipPath><clipPath id="95d5512aed"><path d="M 383.996094 53.511719 C 201.476562 53.511719 53.511719 201.476562 53.511719 383.996094 C 53.511719 566.519531 201.476562 714.484375 383.996094 714.484375 C 566.519531 714.484375 714.484375 566.519531 714.484375 383.996094 C 714.484375 201.476562 566.519531 53.511719 383.996094 53.511719 Z M 383.996094 53.511719 " clip-rule="nonzero"/></clipPath></defs><g clip-path="url(#69fa484ae0)"><g clip-path="url(#95d5512aed)"><path stroke-linecap="butt" transform="matrix(0.75, 0, 0, 0.75, 53.510883, 53.510993)" fill="none" stroke-linejoin="miter" d="M 440.64697 0.000967197 C 197.287583 0.000967197 0.00111466 197.287435 0.00111466 440.646822 C 0.00111466 684.011418 197.287583 881.297886 440.64697 881.297886 C 684.011565 881.297886 881.298033 684.011418 881.298033 440.646822 C 881.298033 197.287435 684.011565 0.000967197 440.64697 0.000967197 Z M 440.64697 0.000967197 " stroke="#000000" stroke-width="30" stroke-opacity="1" stroke-miterlimit="4"/></g></g><g fill="#000000" fill-opacity="1"><g transform="translate(226.838243, 560.192276)"><g><path d="M 94.296875 -165.3125 L 94.296875 -34.0625 L 273.03125 -34.0625 L 273.03125 0 L 53.015625 0 L 53.015625 -350.765625 L 269.1875 -350.765625 L 269.1875 -316.703125 L 94.296875 -316.703125 L 94.296875 -199.375 L 248.5625 -199.375 L 248.5625 -165.3125 Z M 94.296875 -165.3125 "/></g></g></g></svg>