<svg xmlns="http://www.w3.org/2000/svg" xmlns:xlink="http://www.w3.org/1999/xlink" width="1024" zoomAndPan="magnify" viewBox="0 0 768 767.999994" height="1024" preserveAspectRatio="xMidYMid meet" version="1.0"><defs><g/><clipPath id="16571bf0a7"><path d="M 53.511719 53.511719 L 714.261719 53.511719 L 714.261719 714.261719 L 53.511719 714.261719 Z M 53.511719 53.511719 " clip-rule="nonzero"/></clipPath><clipPath id="2cb6ed8428"><path d="M 383.996094 53.511719 C 201.476562 53.511719 53.511719 201.476562 53.511719 383.996094 C 53.511719 566.519531 201.476562 714.484375 383.996094 714.484375 C 566.519531 714.484375 714.484375 566.519531 714.484375 383.996094 C 714.484375 201.476562 566.519531 53.511719 383.996094 53.511719 Z M 383.996094 53.511719 " clip-rule="nonzero"/></clipPath></defs><g clip-path="url(#16571bf0a7)"><g clip-path="url(#2cb6ed8428)"><path stroke-linecap="butt" transform="matrix(0.75, 0, 0, 0.75, 53.510883, 53.510936)" fill="none" stroke-linejoin="miter" d="M 440.64697 0.001044 C 197.287583 0.001044 0.00111466 197.287512 0.00111466 440.646899 C 0.00111466 684.011495 197.287583 881.297963 440.64697 881.297963 C 684.011565 881.297963 881.298033 684.011495 881.298033 440.646899 C 881.298033 197.287512 684.011565 0.001044 440.64697 0.001044 Z M 440.64697 0.001044 " stroke="#000000" stroke-width="30" stroke-opacity="1" stroke-miterlimit="4"/></g></g><g fill="#000000" fill-opacity="1"><g transform="translate(243.436397, 560.192159)"><g><path d="M 259.109375 -350.765625 L 259.109375 -316.703125 L 94.296875 -316.703125 L 94.296875 -189.0625 L 242.5625 -189.0625 L 242.5625 -154.75 L 94.296875 -154.75 L 94.296875 0 L 53.015625 0 L 53.015625 -350.765625 Z M 259.109375 -350.765625 "/></g></g></g></svg>