<svg xmlns="http://www.w3.org/2000/svg" xmlns:xlink="http://www.w3.org/1999/xlink" width="1024" zoomAndPan="magnify" viewBox="0 0 768 767.999994" height="1024" preserveAspectRatio="xMidYMid meet" version="1.0"><defs><g/><clipPath id="489494d23d"><path d="M 53.511719 53.511719 L 714.261719 53.511719 L 714.261719 714.261719 L 53.511719 714.261719 Z M 53.511719 53.511719 " clip-rule="nonzero"/></clipPath><clipPath id="b623c78feb"><path d="M 383.996094 53.511719 C 201.476562 53.511719 53.511719 201.476562 53.511719 383.996094 C 53.511719 566.519531 201.476562 714.484375 383.996094 714.484375 C 566.519531 714.484375 714.484375 566.519531 714.484375 383.996094 C 714.484375 201.476562 566.519531 53.511719 383.996094 53.511719 Z M 383.996094 53.511719 " clip-rule="nonzero"/></clipPath></defs><g clip-path="url(#489494d23d)"><g clip-path="url(#b623c78feb)"><path stroke-linecap="butt" transform="matrix(0.75, 0, 0, 0.75, 53.510883, 53.510936)" fill="none" stroke-linejoin="miter" d="M 440.64697 0.001044 C 197.287583 0.001044 0.00111466 197.287512 0.00111466 440.646899 C 0.00111466 684.011495 197.287583 881.297963 440.64697 881.297963 C 684.011565 881.297963 881.298033 684.011495 881.298033 440.646899 C 881.298033 197.287512 684.011565 0.001044 440.64697 0.001044 Z M 440.64697 0.001044 " stroke="#000000" stroke-width="30" stroke-opacity="1" stroke-miterlimit="4"/></g></g><g fill="#000000" fill-opacity="1"><g transform="translate(194.762117, 560.192159)"><g><path d="M 184.5 5.03125 C 155.070312 5.03125 129.117188 -1.679688 106.640625 -15.109375 C 84.171875 -28.546875 66.617188 -48.78125 53.984375 -75.8125 C 41.347656 -102.84375 35.03125 -136.03125 35.03125 -175.375 C 35.03125 -214.726562 41.785156 -247.921875 55.296875 -274.953125 C 68.816406 -301.984375 87.570312 -322.210938 111.5625 -335.640625 C 135.550781 -349.078125 163.222656 -355.796875 194.578125 -355.796875 C 228.160156 -355.796875 255.75 -349.757812 277.34375 -337.6875 C 298.9375 -325.613281 314.210938 -307.582031 323.171875 -283.59375 L 296.296875 -267.75 L 290.3125 -267.75 C 281.1875 -285.988281 268.863281 -299.066406 253.34375 -306.984375 C 237.832031 -314.898438 218.242188 -318.859375 194.578125 -318.859375 C 117.640625 -318.859375 79.171875 -271.03125 79.171875 -175.375 C 79.171875 -125.632812 88.847656 -89.328125 108.203125 -66.453125 C 127.554688 -43.585938 154.664062 -32.15625 189.53125 -32.15625 C 221.519531 -32.15625 245.472656 -39.429688 261.390625 -53.984375 C 277.304688 -68.535156 285.265625 -91.488281 285.265625 -122.84375 L 285.265625 -153.796875 L 185.453125 -153.796875 L 185.453125 -186.90625 L 325.328125 -186.90625 L 325.328125 0 L 287.1875 0 L 287.1875 -47.03125 L 282.140625 -48.21875 C 272.867188 -30.144531 259.953125 -16.75 243.390625 -8.03125 C 226.835938 0.675781 207.207031 5.03125 184.5 5.03125 Z M 184.5 5.03125 "/></g></g></g></svg>