<svg width="3994" height="376" xmlns="http://www.w3.org/2000/svg" xmlns:xlink="http://www.w3.org/1999/xlink" xml:space="preserve" overflow="hidden"><defs><filter id="fx0" x="-10%" y="-10%" width="120%" height="120%" filterUnits="userSpaceOnUse" primitiveUnits="userSpaceOnUse"><feComponentTransfer color-interpolation-filters="sRGB"><feFuncR type="discrete" tableValues="1 1"/><feFuncG type="discrete" tableValues="1 1"/><feFuncB type="discrete" tableValues="1 1"/><feFuncA type="linear" slope="0.4" intercept="0"/></feComponentTransfer><feGaussianBlur stdDeviation="7.64085 7.66687"/></filter><filter id="fx1" x="-10%" y="-10%" width="120%" height="120%" filterUnits="userSpaceOnUse" primitiveUnits="userSpaceOnUse"><feComponentTransfer color-interpolation-filters="sRGB"><feFuncR type="discrete" tableValues="0.65098 0.65098"/><feFuncG type="discrete" tableValues="0.65098 0.65098"/><feFuncB type="discrete" tableValues="0.65098 0.65098"/><feFuncA type="linear" slope="0.4" intercept="0"/></feComponentTransfer><feGaussianBlur stdDeviation="7.63695 7.61494"/></filter><clipPath id="clip2"><rect x="0" y="0" width="1312" height="106"/></clipPath><linearGradient x1="2216.5" y1="1148" x2="2216.5" y2="1327" gradientUnits="userSpaceOnUse" spreadMethod="reflect" id="fill3"><stop offset="0" stop-color="#EDEEF3"/><stop offset="0.0588235" stop-color="#EEEFF4"/><stop offset="0.117647" stop-color="#F0F1F5"/><stop offset="0.176471" stop-color="#F2F3F6"/><stop offset="0.235294" stop-color="#F4F4F7"/><stop offset="0.294118" stop-color="#F5F6F8"/><stop offset="0.352941" stop-color="#F7F7F9"/><stop offset="0.411765" stop-color="#F8F8FA"/><stop offset="0.470588" stop-color="#F9F9FB"/><stop offset="0.529412" stop-color="#FAFAFC"/><stop offset="0.588235" stop-color="#FBFBFC"/><stop offset="0.647059" stop-color="#FCFCFD"/><stop offset="0.705882" stop-color="#FDFDFD"/><stop offset="0.764706" stop-color="#FDFDFE"/><stop offset="0.823529" stop-color="#FEFEFE"/><stop offset="0.882353" stop-color="#FEFEFE"/><stop offset="0.941176" stop-color="#FEFEFE"/><stop offset="1" stop-color="#FFFFFF"/></linearGradient></defs><g transform="translate(-239 -1069)"><g filter="url(#fx0)" transform="matrix(1.99949 0 0 1.9927 239 1069)"><g><path d="M23.3014 28.6384C23.3014 25.7348 25.6473 23.3809 28.5411 23.3809L1917.05 23.3809C1919.94 23.3809 1922.29 25.7348 1922.29 28.6384L1922.29 107.951C1922.29 110.855 1919.94 113.209 1917.05 113.209L28.5411 113.209C25.6473 113.209 23.3014 110.855 23.3014 107.951Z" fill="#D9D9D9" fill-rule="evenodd"/></g></g><path d="M318 1158.48C318 1152.69 322.691 1148 328.477 1148L4104.52 1148C4110.31 1148 4115 1152.69 4115 1158.48L4115 1316.52C4115 1322.31 4110.31 1327 4104.52 1327L328.477 1327C322.691 1327 318 1322.31 318 1316.52Z" fill="#D9D9D9" fill-rule="evenodd"/><g filter="url(#fx1)" transform="matrix(3.00076 0 0 3.00943 297 1127)"><g clip-path="url(#clip2)"><path d="M23.1986 26.6131C23.1986 24.6905 24.7617 23.1318 26.69 23.1318L1285.05 23.1318C1286.98 23.1318 1288.54 24.6905 1288.54 26.6131L1288.54 79.1301C1288.54 81.0528 1286.98 82.6114 1285.05 82.6114L26.69 82.6114C24.7617 82.6114 23.1986 81.0528 23.1986 79.1301Z" fill="#FF0000" fill-rule="evenodd"/></g></g><path d="M318 1158.48C318 1152.69 322.691 1148 328.477 1148L4104.52 1148C4110.31 1148 4115 1152.69 4115 1158.48L4115 1316.52C4115 1322.31 4110.31 1327 4104.52 1327L328.477 1327C322.691 1327 318 1322.31 318 1316.52Z" fill="url(#fill3)" fill-rule="evenodd"/></g></svg>