<svg xmlns="http://www.w3.org/2000/svg" xmlns:xlink="http://www.w3.org/1999/xlink" width="500" zoomAndPan="magnify" viewBox="0 0 375 374.999991" height="500" preserveAspectRatio="xMidYMid meet" version="1.2"><g id="52c9b32b9b"><path style=" stroke:none;fill-rule:nonzero;fill:#000000;fill-opacity:1;" d="M 307.933594 242.417969 L 275.042969 209.523438 L 299.449219 197.675781 C 301.121094 196.875 302.125 195.136719 302.011719 193.285156 C 301.921875 191.429688 300.6875 189.828125 298.945312 189.234375 L 259.121094 175.535156 L 259.121094 95.425781 L 269.023438 95.425781 C 271.5625 95.425781 273.601562 93.386719 273.601562 90.851562 C 273.601562 88.332031 271.5625 86.273438 269.023438 86.273438 L 259.121094 86.273438 L 259.121094 42.996094 C 259.121094 40.457031 257.0625 38.421875 254.546875 38.421875 L 63.058594 38.421875 C 60.519531 38.421875 58.484375 40.457031 58.484375 42.996094 L 58.484375 86.273438 L 47.890625 86.273438 C 45.375 86.273438 43.316406 88.332031 43.316406 90.851562 C 43.316406 93.386719 45.375 95.425781 47.890625 95.425781 L 58.484375 95.425781 L 58.484375 203.300781 C 58.484375 205.816406 60.519531 207.875 63.058594 207.875 L 217.304688 207.875 L 233.429688 254.746094 C 234.046875 256.484375 235.648438 257.695312 237.480469 257.8125 C 239.332031 257.949219 241.070312 256.921875 241.871094 255.25 L 253.742188 230.839844 L 286.613281 263.738281 C 287.484375 264.582031 288.648438 265.0625 289.863281 265.0625 C 290.089844 265.0625 290.339844 265.042969 290.570312 264.996094 C 290.707031 264.972656 290.847656 264.949219 290.984375 264.902344 C 291.140625 264.878906 291.304688 264.835938 291.460938 264.765625 C 291.507812 264.765625 291.554688 264.746094 291.601562 264.722656 C 292.148438 264.492188 292.652344 264.148438 293.085938 263.738281 L 307.933594 248.890625 C 308.777344 248.046875 309.285156 246.878906 309.285156 245.667969 C 309.277344 244.453125 308.777344 243.289062 307.933594 242.417969 Z M 67.632812 47.570312 L 249.964844 47.570312 L 249.964844 140.488281 L 202.914062 93.457031 C 201.195312 91.742188 198.152344 91.742188 196.4375 93.457031 L 132.777344 157.097656 L 111.484375 135.820312 C 109.765625 134.105469 106.726562 134.105469 105.007812 135.820312 L 67.628906 173.175781 L 67.628906 47.570312 Z M 67.632812 198.726562 L 67.632812 186.125 L 108.257812 145.519531 L 129.554688 166.816406 C 131.269531 168.535156 134.289062 168.535156 136.003906 166.816406 L 199.667969 103.160156 L 249.964844 153.4375 L 249.964844 172.378906 L 208.3125 158.039062 C 206.527344 157.421875 204.628906 157.992188 203.460938 159.316406 C 203.441406 159.316406 203.441406 159.316406 203.417969 159.335938 C 202.160156 160.523438 201.652344 162.378906 202.25 164.117188 L 214.144531 198.726562 Z M 289.863281 254.015625 L 255.667969 219.820312 C 254.613281 218.765625 253.128906 218.3125 251.664062 218.542969 C 250.199219 218.792969 248.960938 219.730469 248.300781 221.058594 L 238.488281 241.304688 L 224.945312 201.957031 C 224.898438 201.800781 224.855469 201.664062 224.789062 201.523438 L 213.828125 169.636719 L 285.496094 194.296875 L 265.273438 204.109375 C 263.925781 204.75 262.988281 206.007812 262.757812 207.472656 C 262.507812 208.933594 262.988281 210.421875 264.015625 211.476562 L 298.238281 245.671875 Z M 289.863281 254.015625 "/><path style=" stroke:none;fill-rule:nonzero;fill:#000000;fill-opacity:1;" d="M 293.085938 263.738281 C 292.652344 264.171875 292.148438 264.515625 291.601562 264.722656 C 292.148438 264.492188 292.648438 264.148438 293.085938 263.738281 Z M 293.085938 263.738281 "/><path style=" stroke:none;fill-rule:nonzero;fill:#000000;fill-opacity:1;" d="M 327.480469 95.433594 L 298.257812 95.433594 C 295.734375 95.433594 293.683594 93.382812 293.683594 90.859375 C 293.683594 88.332031 295.734375 86.285156 298.257812 86.285156 L 327.480469 86.285156 C 330.003906 86.285156 332.054688 88.332031 332.054688 90.859375 C 332.054688 93.382812 330.003906 95.433594 327.480469 95.433594 Z M 327.480469 95.433594 "/><path style=" stroke:none;fill-rule:nonzero;fill:#000000;fill-opacity:1;" d="M 370.425781 109.160156 C 367.898438 109.160156 365.851562 107.109375 365.851562 104.582031 L 365.851562 95.433594 L 356.699219 95.433594 C 354.175781 95.433594 352.125 93.382812 352.125 90.859375 C 352.125 88.332031 354.175781 86.285156 356.699219 86.285156 L 370.425781 86.285156 C 372.949219 86.285156 375 88.332031 375 90.859375 L 375 104.582031 C 375 107.113281 372.949219 109.160156 370.425781 109.160156 Z M 370.425781 109.160156 "/><path style=" stroke:none;fill-rule:nonzero;fill:#000000;fill-opacity:1;" d="M 370.425781 292.324219 C 367.898438 292.324219 365.851562 290.273438 365.851562 287.75 L 365.851562 257.226562 C 365.851562 254.699219 367.898438 252.648438 370.425781 252.648438 C 372.949219 252.648438 375 254.695312 375 257.226562 L 375 287.75 C 375 290.277344 372.949219 292.324219 370.425781 292.324219 Z M 370.425781 231.269531 C 367.898438 231.269531 365.851562 229.222656 365.851562 226.695312 L 365.851562 196.167969 C 365.851562 193.640625 367.898438 191.589844 370.425781 191.589844 C 372.949219 191.589844 375 193.640625 375 196.167969 L 375 226.695312 C 375 229.222656 372.949219 231.269531 370.425781 231.269531 Z M 370.425781 170.214844 C 367.898438 170.214844 365.851562 168.167969 365.851562 165.640625 L 365.851562 135.113281 C 365.851562 132.585938 367.898438 130.539062 370.425781 130.539062 C 372.949219 130.539062 375 132.585938 375 135.113281 L 375 165.640625 C 375 168.167969 372.949219 170.214844 370.425781 170.214844 Z M 370.425781 170.214844 "/><path style=" stroke:none;fill-rule:nonzero;fill:#000000;fill-opacity:1;" d="M 370.425781 336.578125 L 356.699219 336.578125 C 354.175781 336.578125 352.125 334.527344 352.125 332.003906 C 352.125 329.480469 354.175781 327.429688 356.699219 327.429688 L 365.851562 327.429688 L 365.851562 318.277344 C 365.851562 315.753906 367.898438 313.703125 370.425781 313.703125 C 372.949219 313.703125 375 315.753906 375 318.277344 L 375 332.003906 C 375 334.527344 372.949219 336.578125 370.425781 336.578125 Z M 370.425781 336.578125 "/><path style=" stroke:none;fill-rule:nonzero;fill:#000000;fill-opacity:1;" d="M 330.671875 336.578125 L 304.640625 336.578125 C 302.117188 336.578125 300.066406 334.527344 300.066406 332.003906 C 300.066406 329.480469 302.117188 327.429688 304.640625 327.429688 L 330.671875 327.429688 C 333.195312 327.429688 335.246094 329.480469 335.246094 332.003906 C 335.246094 334.527344 333.195312 336.578125 330.671875 336.578125 Z M 278.609375 336.578125 L 252.578125 336.578125 C 250.054688 336.578125 248.003906 334.527344 248.003906 332.003906 C 248.003906 329.480469 250.054688 327.429688 252.578125 327.429688 L 278.609375 327.429688 C 281.132812 327.429688 283.183594 329.480469 283.183594 332.003906 C 283.183594 334.527344 281.132812 336.578125 278.609375 336.578125 Z M 226.546875 336.578125 L 200.515625 336.578125 C 197.992188 336.578125 195.941406 334.527344 195.941406 332.003906 C 195.941406 329.480469 197.992188 327.429688 200.515625 327.429688 L 226.546875 327.429688 C 229.070312 327.429688 231.121094 329.480469 231.121094 332.003906 C 231.121094 334.527344 229.070312 336.578125 226.546875 336.578125 Z M 174.484375 336.578125 L 148.453125 336.578125 C 145.929688 336.578125 143.878906 334.527344 143.878906 332.003906 C 143.878906 329.480469 145.929688 327.429688 148.453125 327.429688 L 174.484375 327.429688 C 177.007812 327.429688 179.058594 329.480469 179.058594 332.003906 C 179.058594 334.527344 177.011719 336.578125 174.484375 336.578125 Z M 122.425781 336.578125 L 96.394531 336.578125 C 93.871094 336.578125 91.820312 334.527344 91.820312 332.003906 C 91.820312 329.480469 93.871094 327.429688 96.394531 327.429688 L 122.425781 327.429688 C 124.949219 327.429688 127 329.480469 127 332.003906 C 127 334.527344 124.949219 336.578125 122.425781 336.578125 Z M 70.363281 336.578125 L 44.332031 336.578125 C 41.808594 336.578125 39.757812 334.527344 39.757812 332.003906 C 39.757812 329.480469 41.808594 327.429688 44.332031 327.429688 L 70.363281 327.429688 C 72.886719 327.429688 74.9375 329.480469 74.9375 332.003906 C 74.9375 334.527344 72.886719 336.578125 70.363281 336.578125 Z M 70.363281 336.578125 "/><path style=" stroke:none;fill-rule:nonzero;fill:#000000;fill-opacity:1;" d="M 18.300781 336.578125 L 4.574219 336.578125 C 2.050781 336.578125 0 334.527344 0 332.003906 L 0 318.277344 C 0 315.753906 2.050781 313.703125 4.574219 313.703125 C 7.101562 313.703125 9.148438 315.753906 9.148438 318.277344 L 9.148438 327.429688 L 18.300781 327.429688 C 20.824219 327.429688 22.875 329.480469 22.875 332.003906 C 22.875 334.527344 20.824219 336.578125 18.300781 336.578125 Z M 18.300781 336.578125 "/><path style=" stroke:none;fill-rule:nonzero;fill:#000000;fill-opacity:1;" d="M 4.574219 292.324219 C 2.050781 292.324219 0 290.277344 0 287.75 L 0 257.222656 C 0 254.695312 2.050781 252.644531 4.574219 252.644531 C 7.101562 252.644531 9.148438 254.695312 9.148438 257.222656 L 9.148438 287.75 C 9.148438 290.277344 7.101562 292.324219 4.574219 292.324219 Z M 4.574219 231.269531 C 2.050781 231.269531 0 229.222656 0 226.695312 L 0 196.167969 C 0 193.640625 2.050781 191.589844 4.574219 191.589844 C 7.101562 191.589844 9.148438 193.640625 9.148438 196.167969 L 9.148438 226.695312 C 9.148438 229.222656 7.101562 231.269531 4.574219 231.269531 Z M 4.574219 170.210938 C 2.050781 170.210938 0 168.167969 0 165.636719 L 0 135.113281 C 0 132.585938 2.050781 130.539062 4.574219 130.539062 C 7.101562 130.539062 9.148438 132.585938 9.148438 135.113281 L 9.148438 165.636719 C 9.148438 168.167969 7.101562 170.210938 4.574219 170.210938 Z M 4.574219 170.210938 "/><path style=" stroke:none;fill-rule:nonzero;fill:#000000;fill-opacity:1;" d="M 4.574219 109.160156 C 2.050781 109.160156 0 107.113281 0 104.582031 L 0 90.859375 C 0 88.332031 2.050781 86.285156 4.574219 86.285156 L 18.300781 86.285156 C 20.824219 86.285156 22.875 88.332031 22.875 90.859375 C 22.875 93.382812 20.824219 95.433594 18.300781 95.433594 L 9.148438 95.433594 L 9.148438 104.582031 C 9.148438 107.113281 7.101562 109.160156 4.574219 109.160156 Z M 4.574219 109.160156 "/><path style=" stroke:none;fill-rule:nonzero;fill:#000000;fill-opacity:1;" d="M 119.179688 116.230469 C 106.683594 116.230469 96.519531 106.0625 96.519531 93.570312 C 96.519531 81.074219 106.6875 70.914062 119.179688 70.914062 C 131.671875 70.914062 141.835938 81.078125 141.835938 93.570312 C 141.835938 106.0625 131.675781 116.230469 119.179688 116.230469 Z M 119.179688 80.058594 C 111.730469 80.058594 105.671875 86.121094 105.671875 93.566406 C 105.671875 101.015625 111.734375 107.074219 119.179688 107.074219 C 126.628906 107.074219 132.6875 101.011719 132.6875 93.566406 C 132.6875 86.121094 126.628906 80.058594 119.179688 80.058594 Z M 119.179688 80.058594 "/></g></svg>