<svg xmlns="http://www.w3.org/2000/svg" xmlns:xlink="http://www.w3.org/1999/xlink" width="500" zoomAndPan="magnify" viewBox="0 0 375 374.999991" height="500" preserveAspectRatio="xMidYMid meet" version="1.2"><defs><clipPath id="7df32ee113"><path d="M 0 37.5 L 374 37.5 L 374 334.5 L 0 334.5 Z M 0 37.5 "/></clipPath></defs><g id="aafc093ce7"><g clip-rule="nonzero" clip-path="url(#7df32ee113)"><path style=" stroke:none;fill-rule:nonzero;fill:#000000;fill-opacity:1;" d="M 346.105469 37.292969 L 28.480469 37.292969 C 13.09375 37.292969 0.601562 49.792969 0.601562 65.132812 L 0.601562 306.246094 C 0.601562 321.636719 13.09375 334.191406 28.480469 334.191406 L 346.105469 334.191406 C 361.441406 334.191406 373.882812 321.636719 373.882812 306.246094 L 373.882812 65.132812 C 373.882812 49.792969 361.441406 37.292969 346.105469 37.292969 Z M 358.394531 244.523438 L 270.109375 147.570312 L 263.035156 139.667969 C 260.554688 136.878906 256.992188 135.433594 253.171875 135.382812 C 249.351562 135.382812 245.738281 137.085938 243.207031 139.976562 L 157.140625 240.90625 L 116.148438 199.945312 C 110.984375 194.988281 102.929688 194.988281 97.613281 200.050781 L 16.089844 281.710938 L 16.089844 65.132812 C 16.089844 58.316406 21.613281 52.789062 28.480469 52.789062 L 346.105469 52.789062 C 352.871094 52.789062 358.394531 58.316406 358.394531 65.132812 Z M 126.214844 125.464844 C 126.214844 144.472656 110.726562 159.96875 91.675781 159.96875 C 72.625 159.96875 57.1875 144.472656 57.1875 125.464844 C 57.1875 106.457031 72.675781 90.910156 91.675781 90.910156 C 110.675781 90.910156 126.214844 106.402344 126.214844 125.464844 Z M 126.214844 125.464844 "/></g></g></svg>