<svg xmlns="http://www.w3.org/2000/svg" xmlns:xlink="http://www.w3.org/1999/xlink" width="500" zoomAndPan="magnify" viewBox="0 0 375 374.999991" height="500" preserveAspectRatio="xMidYMid meet" version="1.2"><defs><clipPath id="3c48a77094"><path d="M 0 152.8125 L 72 152.8125 L 72 222 L 0 222 Z M 0 152.8125 "/></clipPath><clipPath id="43095aee1c"><path d="M 76 152.8125 L 148 152.8125 L 148 222 L 76 222 Z M 76 152.8125 "/></clipPath><clipPath id="2d8ec572e8"><path d="M 152 152.8125 L 225 152.8125 L 225 222 L 152 222 Z M 152 152.8125 "/></clipPath><clipPath id="7b6a1021b8"><path d="M 227 152.8125 L 299 152.8125 L 299 222 L 227 222 Z M 227 152.8125 "/></clipPath><clipPath id="412b2c8991"><path d="M 303 152.8125 L 375 152.8125 L 375 222 L 303 222 Z M 303 152.8125 "/></clipPath></defs><g id="2c84aac4b5"><g clip-rule="nonzero" clip-path="url(#3c48a77094)"><path style=" stroke:none;fill-rule:nonzero;fill:#000000;fill-opacity:1;" d="M 67.964844 175.625 L 48.882812 172.835938 L 40.347656 155.457031 C 39.582031 153.878906 37.96875 152.898438 36.140625 152.898438 C 34.316406 152.898438 32.707031 153.878906 31.941406 155.449219 L 23.398438 172.835938 L 4.332031 175.617188 C 2.558594 175.878906 1.101562 177.105469 0.53125 178.859375 C 0 180.5625 0.480469 182.453125 1.734375 183.65625 L 15.535156 197.191406 L 12.285156 216.285156 C 11.976562 218.035156 12.707031 219.851562 14.152344 220.910156 C 14.957031 221.496094 15.90625 221.808594 16.90625 221.808594 C 17.65625 221.808594 18.410156 221.625 19.089844 221.265625 L 36.144531 212.246094 L 53.242188 221.285156 C 54.769531 222.074219 56.652344 221.96875 58.175781 220.898438 C 59.605469 219.835938 60.320312 218.019531 60.007812 216.300781 L 56.753906 197.191406 L 70.519531 183.699219 C 71.8125 182.476562 72.300781 180.574219 71.738281 178.796875 C 71.160156 177.089844 69.714844 175.878906 67.964844 175.625 Z M 8.1875 181.324219 L 27.503906 178.5 L 36.148438 160.898438 L 44.792969 178.5 L 64.109375 181.324219 L 50.132812 195.023438 L 53.425781 214.371094 L 36.152344 205.238281 L 18.871094 214.375 L 22.167969 195.023438 Z M 8.1875 181.324219 "/></g><g clip-rule="nonzero" clip-path="url(#43095aee1c)"><path style=" stroke:none;fill-rule:nonzero;fill:#000000;fill-opacity:1;" d="M 143.820312 175.625 L 124.75 172.835938 L 116.21875 155.457031 C 115.449219 153.878906 113.835938 152.898438 112.007812 152.898438 C 110.183594 152.898438 108.570312 153.878906 107.804688 155.449219 L 99.269531 172.835938 L 80.199219 175.625 C 78.429688 175.878906 76.976562 177.101562 76.40625 178.828125 C 75.855469 180.535156 76.324219 182.441406 77.59375 183.65625 L 91.398438 197.191406 L 88.136719 216.328125 C 87.851562 218.089844 88.558594 219.835938 90.027344 220.921875 C 90.832031 221.5 91.78125 221.808594 92.765625 221.808594 C 93.527344 221.808594 94.285156 221.621094 94.941406 221.265625 L 112.007812 212.246094 L 129.089844 221.28125 C 130.625 222.078125 132.542969 221.953125 134.027344 220.898438 C 135.457031 219.839844 136.179688 218.023438 135.871094 216.300781 L 132.613281 197.191406 L 146.398438 183.675781 C 147.691406 182.441406 148.164062 180.535156 147.609375 178.828125 C 147.058594 177.136719 145.570312 175.878906 143.820312 175.625 Z M 84.050781 181.324219 L 103.367188 178.5 L 112.007812 160.894531 L 120.652344 178.5 L 139.964844 181.324219 L 125.984375 195.023438 L 129.28125 214.375 L 112.007812 205.238281 L 94.722656 214.375 L 98.027344 195.023438 Z M 84.050781 181.324219 "/></g><g clip-rule="nonzero" clip-path="url(#2d8ec572e8)"><path style=" stroke:none;fill-rule:nonzero;fill:#000000;fill-opacity:1;" d="M 220.46875 175.625 L 201.398438 172.835938 L 192.867188 155.460938 C 192.097656 153.882812 190.484375 152.898438 188.65625 152.898438 C 186.832031 152.898438 185.21875 153.878906 184.453125 155.449219 L 175.917969 172.835938 L 156.84375 175.625 C 155.09375 175.878906 153.609375 177.136719 153.0625 178.820312 C 152.496094 180.546875 152.976562 182.457031 154.242188 183.65625 L 168.046875 197.191406 L 164.785156 216.304688 C 164.488281 218.070312 165.199219 219.832031 166.652344 220.90625 C 167.460938 221.496094 168.414062 221.808594 169.414062 221.808594 C 170.171875 221.808594 170.929688 221.621094 171.589844 221.265625 L 188.65625 212.246094 L 205.71875 221.265625 C 207.242188 222.078125 209.210938 221.953125 210.6875 220.890625 C 212.109375 219.828125 212.824219 218.011719 212.519531 216.300781 L 209.265625 197.191406 L 223.046875 183.675781 C 224.335938 182.441406 224.8125 180.539062 224.253906 178.820312 C 223.691406 177.105469 222.242188 175.878906 220.46875 175.625 Z M 160.699219 181.324219 L 180.015625 178.5 L 188.660156 160.894531 L 197.300781 178.5 L 216.617188 181.324219 L 202.640625 195.023438 L 205.933594 214.371094 L 188.660156 205.238281 L 171.375 214.375 L 174.679688 195.023438 Z M 160.699219 181.324219 "/></g><g clip-rule="nonzero" clip-path="url(#7b6a1021b8)"><path style=" stroke:none;fill-rule:nonzero;fill:#000000;fill-opacity:1;" d="M 294.808594 175.625 L 275.738281 172.835938 L 267.199219 155.445312 C 266.425781 153.875 264.816406 152.898438 262.996094 152.898438 C 261.175781 152.898438 259.5625 153.878906 258.796875 155.449219 L 250.257812 172.835938 L 231.195312 175.617188 C 229.414062 175.878906 227.964844 177.105469 227.40625 178.820312 C 226.84375 180.535156 227.3125 182.441406 228.578125 183.65625 L 242.386719 197.191406 L 239.121094 216.304688 C 238.828125 218.082031 239.539062 219.839844 240.992188 220.910156 C 241.796875 221.496094 242.753906 221.808594 243.75 221.808594 C 244.503906 221.808594 245.261719 221.621094 245.929688 221.265625 L 262.996094 212.246094 L 280.089844 221.285156 C 281.632812 222.078125 283.53125 221.957031 285.011719 220.898438 C 286.449219 219.828125 287.15625 218.070312 286.859375 216.300781 L 283.605469 197.195312 L 297.410156 183.664062 C 298.679688 182.425781 299.140625 180.523438 298.59375 178.855469 C 298.054688 177.144531 296.566406 175.878906 294.808594 175.625 Z M 235.03125 181.324219 L 254.351562 178.5 L 262.992188 160.894531 L 271.636719 178.5 L 290.953125 181.324219 L 276.976562 195.023438 L 280.269531 214.375 L 262.992188 205.238281 L 245.710938 214.375 L 249.015625 195.023438 Z M 235.03125 181.324219 "/></g><g clip-rule="nonzero" clip-path="url(#412b2c8991)"><path style=" stroke:none;fill-rule:nonzero;fill:#000000;fill-opacity:1;" d="M 374.46875 178.820312 C 373.917969 177.128906 372.433594 175.878906 370.683594 175.625 L 351.609375 172.835938 L 343.074219 155.457031 C 342.308594 153.878906 340.695312 152.898438 338.871094 152.898438 C 337.054688 152.898438 335.441406 153.875 334.664062 155.449219 L 326.132812 172.835938 L 307.054688 175.617188 C 305.289062 175.878906 303.835938 177.101562 303.269531 178.820312 C 302.710938 180.535156 303.183594 182.441406 304.453125 183.65625 L 318.257812 197.191406 L 315 216.304688 C 314.703125 218.082031 315.414062 219.839844 316.871094 220.914062 C 317.679688 221.5 318.628906 221.808594 319.621094 221.808594 C 320.382812 221.808594 321.136719 221.621094 321.796875 221.265625 L 338.863281 212.246094 L 355.957031 221.285156 C 357.488281 222.074219 359.386719 221.964844 360.882812 220.898438 C 362.3125 219.839844 363.035156 218.03125 362.730469 216.300781 L 359.480469 197.191406 L 373.234375 183.699219 C 374.53125 182.472656 375.019531 180.578125 374.46875 178.820312 Z M 310.90625 181.324219 L 330.230469 178.5 L 338.863281 160.898438 L 347.507812 178.5 L 366.824219 181.324219 L 352.851562 195.023438 L 356.144531 214.371094 L 338.863281 205.238281 L 321.585938 214.371094 L 324.886719 195.023438 Z M 310.90625 181.324219 "/></g></g></svg>