<svg xmlns="http://www.w3.org/2000/svg" xmlns:xlink="http://www.w3.org/1999/xlink" width="500" zoomAndPan="magnify" viewBox="0 0 375 374.999991" height="500" preserveAspectRatio="xMidYMid meet" version="1.2"><g id="10aad0d98d"><path style=" stroke:none;fill-rule:nonzero;fill:#3c3c3b;fill-opacity:1;" d="M 43.667969 145.433594 C 45.699219 141.191406 51.757812 141.191406 53.785156 145.433594 L 63.695312 166.132812 C 64.511719 167.839844 66.140625 169.019531 68.023438 169.265625 L 90.835938 172.265625 C 95.511719 172.878906 97.382812 178.621094 93.960938 181.855469 L 77.273438 197.644531 C 75.898438 198.949219 75.277344 200.855469 75.621094 202.714844 L 79.8125 225.269531 C 80.667969 229.890625 75.769531 233.4375 71.625 231.195312 L 51.402344 220.253906 C 49.734375 219.351562 47.722656 219.351562 46.054688 220.253906 L 25.828125 231.195312 C 21.6875 233.4375 16.785156 229.890625 17.644531 225.269531 L 21.835938 202.714844 C 22.179688 200.855469 21.558594 198.949219 20.183594 197.644531 L 3.492188 181.855469 C 0.0742188 178.621094 1.945312 172.878906 6.617188 172.265625 L 29.433594 169.265625 C 31.3125 169.019531 32.941406 167.839844 33.757812 166.132812 Z M 43.667969 145.433594 "/><path style=" stroke:none;fill-rule:nonzero;fill:#3c3c3b;fill-opacity:1;" d="M 176.992188 145.433594 C 179.023438 141.191406 185.078125 141.191406 187.109375 145.433594 L 197.019531 166.132812 C 197.835938 167.839844 199.464844 169.019531 201.34375 169.265625 L 224.160156 172.265625 C 228.835938 172.878906 230.707031 178.621094 227.285156 181.855469 L 210.597656 197.644531 C 209.21875 198.949219 208.597656 200.855469 208.945312 202.714844 L 213.132812 225.269531 C 213.992188 229.890625 209.09375 233.4375 204.949219 231.195312 L 184.726562 220.253906 C 183.058594 219.351562 181.046875 219.351562 179.378906 220.253906 L 159.152344 231.195312 C 155.011719 233.4375 150.109375 229.890625 150.96875 225.269531 L 155.160156 202.714844 C 155.503906 200.855469 154.882812 198.949219 153.507812 197.644531 L 136.816406 181.855469 C 133.398438 178.621094 135.269531 172.878906 139.941406 172.265625 L 162.757812 169.265625 C 164.636719 169.019531 166.265625 167.839844 167.082031 166.132812 Z M 176.992188 145.433594 "/><path style=" stroke:none;fill-rule:nonzero;fill:#3c3c3b;fill-opacity:1;" d="M 310.316406 145.433594 C 312.347656 141.191406 318.402344 141.191406 320.433594 145.433594 L 330.34375 166.132812 C 331.160156 167.839844 332.789062 169.019531 334.667969 169.265625 L 357.484375 172.265625 C 362.15625 172.878906 364.027344 178.621094 360.609375 181.855469 L 343.921875 197.644531 C 342.542969 198.949219 341.921875 200.855469 342.269531 202.714844 L 346.457031 225.269531 C 347.316406 229.890625 342.417969 233.4375 338.273438 231.195312 L 318.046875 220.253906 C 316.378906 219.351562 314.371094 219.351562 312.703125 220.253906 L 292.476562 231.195312 C 288.332031 233.4375 283.433594 229.890625 284.292969 225.269531 L 288.480469 202.714844 C 288.828125 200.855469 288.207031 198.949219 286.828125 197.644531 L 270.140625 181.855469 C 266.722656 178.621094 268.59375 172.878906 273.265625 172.265625 L 296.082031 169.265625 C 297.960938 169.019531 299.589844 167.839844 300.40625 166.132812 Z M 310.316406 145.433594 "/></g></svg>