<svg xmlns="http://www.w3.org/2000/svg" xmlns:xlink="http://www.w3.org/1999/xlink" width="500" zoomAndPan="magnify" viewBox="0 0 375 374.999991" height="500" preserveAspectRatio="xMidYMid meet" version="1.2"><defs><clipPath id="0151c05d22"><path d="M 17.035156 13.257812 L 358 13.257812 L 358 362 L 17.035156 362 Z M 17.035156 13.257812 "/></clipPath></defs><g id="3b34a7ea12"><g clip-rule="nonzero" clip-path="url(#0151c05d22)"><path style=" stroke:none;fill-rule:nonzero;fill:#3c3c3b;fill-opacity:1;" d="M 356.59375 257.238281 L 326.621094 193.105469 L 326.621094 88.867188 C 326.621094 88.050781 326.464844 87.265625 326.152344 86.507812 C 325.839844 85.753906 325.394531 85.085938 324.816406 84.507812 L 270.425781 30.101562 C 269.847656 29.523438 269.183594 29.078125 268.425781 28.765625 C 267.671875 28.453125 266.882812 28.296875 266.066406 28.292969 L 232.292969 28.292969 L 223.925781 23.246094 C 223.226562 22.824219 222.472656 22.550781 221.664062 22.425781 C 220.855469 22.304688 220.054688 22.339844 219.257812 22.535156 L 211.351562 24.480469 L 181.460938 13.632812 C 180.691406 13.355469 179.898438 13.234375 179.082031 13.269531 C 178.265625 13.304688 177.484375 13.496094 176.746094 13.84375 L 145.777344 28.308594 L 92.421875 28.308594 C 92.015625 28.308594 91.613281 28.347656 91.21875 28.429688 C 90.820312 28.507812 90.433594 28.625 90.058594 28.78125 C 89.6875 28.933594 89.332031 29.125 88.992188 29.347656 C 88.65625 29.574219 88.34375 29.832031 88.058594 30.117188 C 87.773438 30.402344 87.515625 30.714844 87.292969 31.050781 C 87.066406 31.386719 86.875 31.742188 86.722656 32.117188 C 86.566406 32.492188 86.449219 32.878906 86.371094 33.273438 C 86.292969 33.671875 86.253906 34.074219 86.253906 34.476562 L 86.253906 55.253906 L 52.746094 63.503906 C 52.351562 63.597656 51.972656 63.734375 51.605469 63.902344 C 51.238281 64.074219 50.890625 64.28125 50.5625 64.519531 C 50.238281 64.761719 49.9375 65.03125 49.664062 65.328125 C 49.390625 65.628906 49.148438 65.949219 48.941406 66.296875 C 48.730469 66.644531 48.558594 67.007812 48.417969 67.386719 C 48.28125 67.769531 48.183594 68.160156 48.121094 68.558594 C 48.058594 68.957031 48.039062 69.359375 48.058594 69.765625 C 48.074219 70.171875 48.132812 70.570312 48.230469 70.960938 L 48.878906 73.582031 L 21.378906 86.445312 C 21.011719 86.613281 20.664062 86.820312 20.335938 87.058594 C 20.011719 87.300781 19.710938 87.570312 19.4375 87.867188 C 19.164062 88.167969 18.921875 88.488281 18.710938 88.835938 C 18.5 89.183594 18.328125 89.546875 18.1875 89.925781 C 18.050781 90.308594 17.953125 90.699219 17.890625 91.097656 C 17.828125 91.5 17.808594 91.902344 17.824219 92.308594 C 17.84375 92.710938 17.902344 93.109375 18 93.503906 C 18.09375 93.898438 18.230469 94.277344 18.402344 94.644531 L 86.257812 239.855469 L 86.257812 328.589844 C 86.257812 328.996094 86.296875 329.394531 86.375 329.792969 C 86.453125 330.191406 86.570312 330.574219 86.726562 330.949219 C 86.878906 331.324219 87.070312 331.679688 87.296875 332.015625 C 87.519531 332.351562 87.777344 332.664062 88.0625 332.949219 C 88.347656 333.234375 88.660156 333.492188 88.996094 333.714844 C 89.332031 333.941406 89.6875 334.132812 90.0625 334.285156 C 90.4375 334.441406 90.820312 334.558594 91.21875 334.636719 C 91.617188 334.714844 92.015625 334.753906 92.421875 334.753906 L 113.101562 334.753906 L 117.59375 353.035156 C 117.691406 353.429688 117.824219 353.808594 117.996094 354.175781 C 118.167969 354.542969 118.371094 354.890625 118.613281 355.214844 C 118.851562 355.542969 119.121094 355.84375 119.417969 356.117188 C 119.71875 356.390625 120.039062 356.628906 120.386719 356.839844 C 120.734375 357.050781 121.097656 357.222656 121.476562 357.363281 C 121.859375 357.5 122.25 357.597656 122.648438 357.660156 C 123.050781 357.722656 123.453125 357.742188 123.855469 357.722656 C 124.261719 357.707031 124.660156 357.648438 125.054688 357.550781 L 139.582031 353.980469 L 141.371094 357.808594 C 141.542969 358.175781 141.75 358.523438 141.988281 358.851562 C 142.226562 359.179688 142.496094 359.480469 142.792969 359.753906 C 143.089844 360.027344 143.414062 360.269531 143.761719 360.480469 C 144.105469 360.691406 144.46875 360.867188 144.851562 361.007812 C 145.230469 361.144531 145.621094 361.246094 146.023438 361.308594 C 146.421875 361.371094 146.824219 361.390625 147.230469 361.375 C 147.636719 361.359375 148.035156 361.300781 148.429688 361.203125 C 148.824219 361.109375 149.203125 360.976562 149.570312 360.804688 L 191.429688 341.242188 L 217.714844 334.773438 L 320.457031 334.773438 C 320.863281 334.773438 321.261719 334.734375 321.660156 334.65625 C 322.054688 334.578125 322.441406 334.460938 322.816406 334.304688 C 323.191406 334.148438 323.546875 333.960938 323.882812 333.734375 C 324.21875 333.511719 324.53125 333.253906 324.816406 332.96875 C 325.101562 332.683594 325.359375 332.371094 325.582031 332.035156 C 325.808594 331.699219 325.996094 331.34375 326.152344 330.96875 C 326.308594 330.59375 326.425781 330.210938 326.503906 329.8125 C 326.582031 329.414062 326.621094 329.015625 326.621094 328.609375 L 326.621094 307.96875 L 343.761719 303.75 C 344.15625 303.65625 344.535156 303.519531 344.902344 303.351562 C 345.269531 303.179688 345.613281 302.972656 345.941406 302.734375 C 346.265625 302.492188 346.566406 302.222656 346.839844 301.925781 C 347.113281 301.625 347.355469 301.304688 347.566406 300.957031 C 347.773438 300.609375 347.949219 300.246094 348.085938 299.867188 C 348.222656 299.484375 348.324219 299.09375 348.382812 298.695312 C 348.445312 298.296875 348.464844 297.894531 348.449219 297.488281 C 348.429688 297.082031 348.371094 296.683594 348.273438 296.292969 L 342.015625 270.839844 L 353.621094 265.417969 C 353.988281 265.25 354.335938 265.042969 354.664062 264.804688 C 354.988281 264.566406 355.289062 264.296875 355.566406 263.996094 C 355.839844 263.699219 356.082031 263.378906 356.292969 263.03125 C 356.503906 262.683594 356.675781 262.320312 356.816406 261.941406 C 356.957031 261.558594 357.054688 261.167969 357.117188 260.769531 C 357.179688 260.367188 357.203125 259.964844 357.183594 259.5625 C 357.167969 259.15625 357.109375 258.757812 357.015625 258.363281 C 356.917969 257.96875 356.785156 257.589844 356.613281 257.222656 Z M 272.230469 49.363281 L 305.566406 82.699219 L 272.230469 82.699219 Z M 179.652344 26.09375 L 185.753906 28.308594 L 174.898438 28.308594 Z M 86.257812 67.953125 L 86.257812 173.992188 L 61.660156 74.003906 Z M 51.863281 85.8125 L 78.515625 194.148438 L 32.183594 95.007812 Z M 125.804688 334.753906 L 166.09375 334.753906 L 128.105469 344.113281 Z M 98.59375 322.402344 L 98.59375 40.644531 L 259.898438 40.644531 L 259.898438 88.867188 C 259.898438 89.273438 259.9375 89.675781 260.015625 90.074219 C 260.09375 90.46875 260.210938 90.855469 260.367188 91.230469 C 260.523438 91.601562 260.710938 91.957031 260.9375 92.296875 C 261.164062 92.632812 261.417969 92.945312 261.703125 93.230469 C 261.992188 93.515625 262.300781 93.769531 262.640625 93.996094 C 262.976562 94.222656 263.332031 94.410156 263.707031 94.566406 C 264.078125 94.71875 264.464844 94.835938 264.863281 94.917969 C 265.261719 94.996094 265.660156 95.035156 266.066406 95.035156 L 314.289062 95.035156 L 314.289062 322.4375 Z M 326.621094 295.246094 L 326.621094 259.925781 L 334.828125 293.242188 Z M 339.015625 258.625 L 333.878906 237.769531 L 342.804688 256.859375 Z M 117.050781 93.609375 C 117.050781 93.203125 117.089844 92.800781 117.167969 92.40625 C 117.246094 92.007812 117.363281 91.621094 117.519531 91.246094 C 117.675781 90.875 117.863281 90.519531 118.089844 90.183594 C 118.316406 89.84375 118.570312 89.535156 118.855469 89.246094 C 119.144531 88.960938 119.457031 88.707031 119.792969 88.480469 C 120.128906 88.253906 120.484375 88.066406 120.859375 87.910156 C 121.234375 87.757812 121.617188 87.640625 122.015625 87.5625 C 122.414062 87.480469 122.8125 87.441406 123.21875 87.441406 L 175.597656 87.441406 C 175.996094 87.453125 176.386719 87.5 176.777344 87.585938 C 177.167969 87.671875 177.542969 87.796875 177.910156 87.957031 C 178.273438 88.113281 178.621094 88.308594 178.949219 88.535156 C 179.277344 88.761719 179.582031 89.015625 179.859375 89.300781 C 180.136719 89.585938 180.386719 89.898438 180.605469 90.230469 C 180.824219 90.5625 181.007812 90.914062 181.15625 91.285156 C 181.308594 91.652344 181.421875 92.035156 181.496094 92.425781 C 181.574219 92.816406 181.613281 93.210938 181.613281 93.609375 C 181.613281 94.007812 181.574219 94.402344 181.496094 94.792969 C 181.421875 95.1875 181.308594 95.566406 181.15625 95.933594 C 181.007812 96.304688 180.824219 96.65625 180.605469 96.988281 C 180.386719 97.324219 180.136719 97.632812 179.859375 97.917969 C 179.582031 98.203125 179.277344 98.457031 178.949219 98.683594 C 178.621094 98.910156 178.273438 99.105469 177.910156 99.265625 C 177.542969 99.421875 177.167969 99.546875 176.777344 99.632812 C 176.386719 99.71875 175.996094 99.765625 175.597656 99.777344 L 123.222656 99.777344 C 122.820312 99.777344 122.417969 99.738281 122.023438 99.660156 C 121.625 99.578125 121.238281 99.464844 120.867188 99.308594 C 120.492188 99.152344 120.136719 98.964844 119.800781 98.742188 C 119.464844 98.515625 119.152344 98.261719 118.867188 97.976562 C 118.582031 97.691406 118.324219 97.378906 118.101562 97.042969 C 117.875 96.707031 117.683594 96.355469 117.527344 95.980469 C 117.375 95.609375 117.253906 95.222656 117.175781 94.828125 C 117.097656 94.429688 117.054688 94.03125 117.054688 93.625 Z M 117.050781 119.042969 C 117.050781 118.636719 117.089844 118.234375 117.167969 117.839844 C 117.246094 117.441406 117.363281 117.054688 117.519531 116.683594 C 117.675781 116.308594 117.863281 115.953125 118.089844 115.617188 C 118.316406 115.277344 118.570312 114.96875 118.855469 114.679688 C 119.144531 114.394531 119.457031 114.140625 119.792969 113.914062 C 120.128906 113.691406 120.484375 113.5 120.859375 113.34375 C 121.234375 113.191406 121.617188 113.074219 122.015625 112.996094 C 122.414062 112.917969 122.8125 112.878906 123.21875 112.878906 L 217.8125 112.878906 C 218.21875 112.878906 218.621094 112.917969 219.019531 112.996094 C 219.417969 113.074219 219.804688 113.191406 220.175781 113.347656 C 220.550781 113.503906 220.90625 113.691406 221.246094 113.917969 C 221.582031 114.144531 221.894531 114.398438 222.179688 114.6875 C 222.46875 114.972656 222.722656 115.285156 222.949219 115.621094 C 223.175781 115.960938 223.363281 116.316406 223.519531 116.691406 C 223.675781 117.0625 223.792969 117.449219 223.871094 117.847656 C 223.949219 118.246094 223.988281 118.648438 223.988281 119.054688 C 223.988281 119.457031 223.949219 119.859375 223.871094 120.257812 C 223.792969 120.65625 223.675781 121.042969 223.519531 121.417969 C 223.363281 121.792969 223.175781 122.148438 222.949219 122.484375 C 222.722656 122.820312 222.46875 123.132812 222.179688 123.421875 C 221.894531 123.707031 221.582031 123.964844 221.246094 124.1875 C 220.90625 124.414062 220.550781 124.605469 220.175781 124.757812 C 219.804688 124.914062 219.417969 125.03125 219.019531 125.109375 C 218.621094 125.191406 218.21875 125.230469 217.8125 125.230469 L 123.222656 125.230469 C 122.816406 125.230469 122.417969 125.191406 122.019531 125.109375 C 121.621094 125.03125 121.234375 124.914062 120.863281 124.761719 C 120.488281 124.605469 120.132812 124.414062 119.796875 124.191406 C 119.457031 123.964844 119.148438 123.710938 118.859375 123.421875 C 118.574219 123.136719 118.320312 122.824219 118.09375 122.488281 C 117.867188 122.152344 117.679688 121.796875 117.523438 121.421875 C 117.367188 121.046875 117.25 120.660156 117.171875 120.265625 C 117.09375 119.867188 117.054688 119.464844 117.054688 119.0625 Z M 295.824219 153.207031 C 295.824219 153.609375 295.785156 154.011719 295.703125 154.410156 C 295.625 154.804688 295.507812 155.191406 295.355469 155.566406 C 295.199219 155.941406 295.007812 156.296875 294.785156 156.632812 C 294.558594 156.96875 294.304688 157.28125 294.015625 157.566406 C 293.730469 157.851562 293.417969 158.109375 293.082031 158.335938 C 292.746094 158.558594 292.390625 158.75 292.015625 158.902344 C 291.640625 159.058594 291.253906 159.175781 290.859375 159.253906 C 290.460938 159.335938 290.058594 159.375 289.65625 159.375 L 123.222656 159.375 C 122.816406 159.375 122.414062 159.335938 122.019531 159.253906 C 121.621094 159.175781 121.234375 159.058594 120.859375 158.902344 C 120.484375 158.75 120.128906 158.558594 119.792969 158.332031 C 119.453125 158.109375 119.140625 157.851562 118.855469 157.566406 C 118.570312 157.277344 118.3125 156.964844 118.085938 156.628906 C 117.863281 156.292969 117.671875 155.9375 117.515625 155.5625 C 117.363281 155.1875 117.246094 154.800781 117.164062 154.402344 C 117.085938 154.003906 117.046875 153.601562 117.046875 153.199219 C 117.046875 152.792969 117.085938 152.390625 117.164062 151.992188 C 117.246094 151.59375 117.363281 151.207031 117.515625 150.835938 C 117.671875 150.460938 117.863281 150.105469 118.085938 149.765625 C 118.3125 149.429688 118.570312 149.117188 118.855469 148.832031 C 119.140625 148.542969 119.453125 148.289062 119.792969 148.0625 C 120.128906 147.835938 120.484375 147.648438 120.859375 147.492188 C 121.234375 147.335938 121.621094 147.21875 122.019531 147.140625 C 122.414062 147.0625 122.816406 147.023438 123.222656 147.023438 L 289.660156 147.023438 C 290.066406 147.023438 290.46875 147.0625 290.867188 147.140625 C 291.265625 147.21875 291.652344 147.339844 292.027344 147.496094 C 292.402344 147.648438 292.757812 147.839844 293.097656 148.066406 C 293.433594 148.292969 293.746094 148.550781 294.03125 148.839844 C 294.320312 149.128906 294.574219 149.441406 294.800781 149.78125 C 295.023438 150.121094 295.214844 150.476562 295.367188 150.851562 C 295.519531 151.230469 295.636719 151.617188 295.714844 152.015625 C 295.792969 152.414062 295.828125 152.816406 295.828125 153.222656 Z M 295.824219 181.484375 C 295.824219 181.890625 295.789062 182.292969 295.710938 182.691406 C 295.632812 183.089844 295.519531 183.480469 295.363281 183.855469 C 295.210938 184.230469 295.023438 184.589844 294.796875 184.925781 C 294.574219 185.265625 294.316406 185.578125 294.03125 185.867188 C 293.746094 186.15625 293.433594 186.414062 293.09375 186.640625 C 292.757812 186.867188 292.402344 187.058594 292.027344 187.214844 C 291.652344 187.371094 291.265625 187.488281 290.867188 187.566406 C 290.46875 187.648438 290.066406 187.6875 289.660156 187.6875 L 123.222656 187.6875 C 122.816406 187.6875 122.414062 187.648438 122.019531 187.566406 C 121.621094 187.488281 121.234375 187.371094 120.859375 187.214844 C 120.484375 187.0625 120.128906 186.871094 119.792969 186.644531 C 119.453125 186.421875 119.140625 186.164062 118.855469 185.878906 C 118.570312 185.589844 118.3125 185.277344 118.085938 184.941406 C 117.863281 184.605469 117.671875 184.25 117.515625 183.875 C 117.363281 183.5 117.246094 183.113281 117.164062 182.714844 C 117.085938 182.316406 117.046875 181.914062 117.046875 181.511719 C 117.046875 181.105469 117.085938 180.703125 117.164062 180.304688 C 117.246094 179.90625 117.363281 179.519531 117.515625 179.148438 C 117.671875 178.773438 117.863281 178.417969 118.085938 178.078125 C 118.3125 177.742188 118.570312 177.429688 118.855469 177.144531 C 119.140625 176.855469 119.453125 176.601562 119.792969 176.375 C 120.128906 176.148438 120.484375 175.960938 120.859375 175.804688 C 121.234375 175.648438 121.621094 175.53125 122.019531 175.453125 C 122.414062 175.375 122.816406 175.335938 123.222656 175.335938 L 289.660156 175.335938 C 290.0625 175.335938 290.464844 175.375 290.863281 175.453125 C 291.257812 175.53125 291.644531 175.648438 292.019531 175.804688 C 292.394531 175.957031 292.75 176.148438 293.085938 176.375 C 293.421875 176.597656 293.734375 176.855469 294.019531 177.140625 C 294.308594 177.425781 294.5625 177.738281 294.789062 178.074219 C 295.011719 178.414062 295.203125 178.769531 295.359375 179.140625 C 295.511719 179.515625 295.628906 179.902344 295.707031 180.300781 C 295.789062 180.695312 295.828125 181.097656 295.828125 181.503906 Z M 295.824219 209.761719 C 295.824219 210.167969 295.785156 210.570312 295.703125 210.964844 C 295.625 211.363281 295.507812 211.75 295.355469 212.121094 C 295.199219 212.496094 295.007812 212.851562 294.785156 213.1875 C 294.558594 213.527344 294.304688 213.835938 294.015625 214.125 C 293.730469 214.410156 293.417969 214.664062 293.082031 214.890625 C 292.746094 215.113281 292.390625 215.304688 292.015625 215.460938 C 291.640625 215.613281 291.253906 215.730469 290.859375 215.808594 C 290.460938 215.890625 290.058594 215.929688 289.65625 215.929688 L 123.222656 215.929688 C 122.816406 215.929688 122.414062 215.890625 122.015625 215.8125 C 121.617188 215.730469 121.230469 215.613281 120.855469 215.460938 C 120.480469 215.304688 120.125 215.113281 119.789062 214.890625 C 119.449219 214.664062 119.136719 214.410156 118.851562 214.121094 C 118.5625 213.835938 118.304688 213.523438 118.082031 213.1875 C 117.855469 212.847656 117.664062 212.492188 117.507812 212.117188 C 117.355469 211.742188 117.234375 211.355469 117.15625 210.957031 C 117.078125 210.558594 117.039062 210.15625 117.039062 209.75 C 117.039062 209.347656 117.078125 208.945312 117.15625 208.546875 C 117.234375 208.148438 117.355469 207.761719 117.507812 207.386719 C 117.664062 207.011719 117.855469 206.65625 118.082031 206.316406 C 118.304688 205.980469 118.5625 205.667969 118.851562 205.382812 C 119.136719 205.09375 119.449219 204.839844 119.789062 204.613281 C 120.125 204.386719 120.480469 204.199219 120.855469 204.042969 C 121.230469 203.886719 121.617188 203.773438 122.015625 203.691406 C 122.414062 203.613281 122.816406 203.574219 123.222656 203.574219 L 289.660156 203.574219 C 290.066406 203.574219 290.46875 203.617188 290.867188 203.695312 C 291.261719 203.773438 291.648438 203.890625 292.023438 204.046875 C 292.402344 204.203125 292.757812 204.394531 293.09375 204.621094 C 293.429688 204.847656 293.742188 205.105469 294.03125 205.390625 C 294.316406 205.679688 294.570312 205.992188 294.796875 206.332031 C 295.023438 206.667969 295.210938 207.027344 295.367188 207.402344 C 295.519531 207.777344 295.636719 208.164062 295.714844 208.5625 C 295.789062 208.960938 295.828125 209.363281 295.828125 209.769531 Z M 295.824219 238.042969 C 295.824219 238.445312 295.785156 238.847656 295.703125 239.246094 C 295.625 239.640625 295.507812 240.027344 295.355469 240.402344 C 295.199219 240.777344 295.007812 241.132812 294.785156 241.46875 C 294.558594 241.804688 294.304688 242.117188 294.015625 242.402344 C 293.730469 242.6875 293.417969 242.945312 293.082031 243.167969 C 292.746094 243.394531 292.390625 243.582031 292.015625 243.738281 C 291.640625 243.894531 291.253906 244.011719 290.859375 244.089844 C 290.460938 244.167969 290.058594 244.207031 289.65625 244.207031 L 123.222656 244.207031 C 122.816406 244.207031 122.414062 244.167969 122.019531 244.089844 C 121.621094 244.007812 121.234375 243.890625 120.859375 243.738281 C 120.484375 243.582031 120.128906 243.390625 119.792969 243.164062 C 119.453125 242.941406 119.140625 242.683594 118.855469 242.398438 C 118.570312 242.109375 118.3125 241.800781 118.085938 241.460938 C 117.863281 241.125 117.671875 240.769531 117.515625 240.394531 C 117.363281 240.019531 117.246094 239.632812 117.164062 239.234375 C 117.085938 238.839844 117.046875 238.4375 117.046875 238.03125 C 117.046875 237.625 117.085938 237.222656 117.164062 236.824219 C 117.246094 236.429688 117.363281 236.042969 117.515625 235.667969 C 117.671875 235.292969 117.863281 234.9375 118.085938 234.597656 C 118.3125 234.261719 118.570312 233.949219 118.855469 233.664062 C 119.140625 233.375 119.453125 233.121094 119.792969 232.894531 C 120.128906 232.671875 120.484375 232.480469 120.859375 232.324219 C 121.234375 232.167969 121.621094 232.050781 122.019531 231.972656 C 122.414062 231.894531 122.816406 231.855469 123.222656 231.855469 L 289.660156 231.855469 C 290.066406 231.855469 290.46875 231.894531 290.867188 231.972656 C 291.265625 232.054688 291.652344 232.171875 292.027344 232.328125 C 292.402344 232.484375 292.761719 232.675781 293.097656 232.902344 C 293.433594 233.128906 293.746094 233.386719 294.035156 233.675781 C 294.320312 233.964844 294.574219 234.277344 294.800781 234.617188 C 295.023438 234.953125 295.214844 235.3125 295.367188 235.6875 C 295.523438 236.066406 295.636719 236.453125 295.714844 236.851562 C 295.792969 237.25 295.828125 237.652344 295.828125 238.0625 Z M 295.824219 266.316406 C 295.824219 266.722656 295.785156 267.125 295.703125 267.519531 C 295.625 267.917969 295.507812 268.304688 295.355469 268.679688 C 295.199219 269.050781 295.007812 269.40625 294.785156 269.746094 C 294.558594 270.082031 294.304688 270.394531 294.015625 270.679688 C 293.730469 270.964844 293.417969 271.222656 293.082031 271.445312 C 292.746094 271.671875 292.390625 271.859375 292.015625 272.015625 C 291.640625 272.171875 291.253906 272.289062 290.859375 272.367188 C 290.460938 272.445312 290.058594 272.484375 289.65625 272.484375 L 236.277344 272.484375 C 235.875 272.484375 235.472656 272.445312 235.074219 272.367188 C 234.675781 272.289062 234.289062 272.171875 233.914062 272.015625 C 233.539062 271.859375 233.183594 271.671875 232.847656 271.445312 C 232.511719 271.21875 232.199219 270.964844 231.910156 270.675781 C 231.625 270.390625 231.367188 270.078125 231.144531 269.742188 C 230.917969 269.402344 230.726562 269.046875 230.574219 268.671875 C 230.417969 268.296875 230.300781 267.914062 230.222656 267.515625 C 230.140625 267.117188 230.101562 266.714844 230.101562 266.308594 C 230.101562 265.902344 230.140625 265.503906 230.222656 265.105469 C 230.300781 264.707031 230.417969 264.320312 230.574219 263.945312 C 230.726562 263.570312 230.917969 263.214844 231.144531 262.878906 C 231.367188 262.542969 231.625 262.230469 231.910156 261.941406 C 232.199219 261.65625 232.511719 261.398438 232.847656 261.175781 C 233.183594 260.949219 233.539062 260.757812 233.914062 260.605469 C 234.289062 260.449219 234.675781 260.332031 235.074219 260.253906 C 235.472656 260.171875 235.875 260.132812 236.277344 260.132812 L 289.660156 260.132812 C 290.066406 260.132812 290.46875 260.171875 290.867188 260.253906 C 291.265625 260.332031 291.652344 260.449219 292.027344 260.605469 C 292.402344 260.761719 292.757812 260.953125 293.097656 261.179688 C 293.433594 261.40625 293.746094 261.664062 294.035156 261.949219 C 294.320312 262.238281 294.574219 262.554688 294.800781 262.890625 C 295.023438 263.230469 295.214844 263.589844 295.367188 263.964844 C 295.523438 264.339844 295.636719 264.726562 295.714844 265.128906 C 295.792969 265.527344 295.828125 265.929688 295.828125 266.335938 Z M 295.824219 266.316406 "/></g></g></svg>